REM DIRINDEX 1\2,1\3
REM DIRNAME cjc116,folder01,folder02
TITLE ""
FILE "Disc2Track01.mp3" MP3
  TRACK 01 AUDIO
    TITLE "0:"
    INDEX 01 00:00:00
  TRACK 02 AUDIO
    TITLE "3:cjc116_1677"
    INDEX 01 00:00:27
  TRACK 03 AUDIO
    TITLE "0:"
    INDEX 01 00:02:14
  TRACK 04 AUDIO
    TITLE "2:cjc116_1678"
    INDEX 01 00:02:57
  TRACK 05 AUDIO
    TITLE "0:"
    INDEX 01 00:03:64
  TRACK 06 AUDIO
    TITLE "2:cjc116_1679"
    INDEX 01 00:04:07
  TRACK 07 AUDIO
    TITLE "0:"
    INDEX 01 00:08:07
  TRACK 08 AUDIO
    TITLE "2:cjc116_1680"
    INDEX 01 00:08:54
  TRACK 09 AUDIO
    TITLE "0:"
    INDEX 01 00:09:63
  TRACK 10 AUDIO
    TITLE "2:cjc116_1681"
    INDEX 01 00:10:06
  TRACK 11 AUDIO
    TITLE "0:"
    INDEX 01 00:14:00
  TRACK 12 AUDIO
    TITLE "2:cjc116_1682"
    INDEX 01 00:14:45
  TRACK 13 AUDIO
    TITLE "0:"
    INDEX 01 00:15:44
  TRACK 14 AUDIO
    TITLE "2:cjc116_1683"
    INDEX 01 00:15:62
  TRACK 15 AUDIO
    TITLE "0:"
    INDEX 01 00:20:06
  TRACK 16 AUDIO
    TITLE "2:cjc116_1684"
    INDEX 01 00:20:45
  TRACK 17 AUDIO
    TITLE "0:"
    INDEX 01 00:21:64
  TRACK 18 AUDIO
    TITLE "2:cjc116_1685"
    INDEX 01 00:21:74
  TRACK 19 AUDIO
    TITLE "0:"
    INDEX 01 00:25:45
  TRACK 20 AUDIO
    TITLE "2:cjc116_1686"
    INDEX 01 00:26:11
  TRACK 21 AUDIO
    TITLE "0:"
    INDEX 01 00:27:12
  TRACK 22 AUDIO
    TITLE "2:cjc116_1687"
    INDEX 01 00:27:36
  TRACK 23 AUDIO
    TITLE "0:"
    INDEX 01 00:31:29
  TRACK 24 AUDIO
    TITLE "2:cjc116_1688"
    INDEX 01 00:31:73
  TRACK 25 AUDIO
    TITLE "0:"
    INDEX 01 00:33:15
  TRACK 26 AUDIO
    TITLE "2:cjc116_1689"
    INDEX 01 00:33:32
  TRACK 27 AUDIO
    TITLE "0:"
    INDEX 01 00:37:63
  TRACK 28 AUDIO
    TITLE "2:cjc116_1690"
    INDEX 01 00:38:30
  TRACK 29 AUDIO
    TITLE "0:"
    INDEX 01 00:39:25
  TRACK 30 AUDIO
    TITLE "2:cjc116_1691"
    INDEX 01 00:39:43
  TRACK 31 AUDIO
    TITLE "0:"
    INDEX 01 00:43:74
  TRACK 32 AUDIO
    TITLE "2:cjc116_1692"
    INDEX 01 00:44:34
  TRACK 33 AUDIO
    TITLE "0:"
    INDEX 01 00:45:35
  TRACK 34 AUDIO
    TITLE "2:cjc116_1693"
    INDEX 01 00:45:55
  TRACK 35 AUDIO
    TITLE "0:"
    INDEX 01 00:50:07
  TRACK 36 AUDIO
    TITLE "2:cjc116_1694"
    INDEX 01 00:50:48
  TRACK 37 AUDIO
    TITLE "0:"
    INDEX 01 00:51:65
  TRACK 38 AUDIO
    TITLE "2:cjc116_1695"
    INDEX 01 00:52:04
  TRACK 39 AUDIO
    TITLE "0:"
    INDEX 01 00:56:08
  TRACK 40 AUDIO
    TITLE "2:cjc116_1696"
    INDEX 01 00:56:45
  TRACK 41 AUDIO
    TITLE "0:"
    INDEX 01 00:57:46
  TRACK 42 AUDIO
    TITLE "2:cjc116_1697"
    INDEX 01 00:57:66
  TRACK 43 AUDIO
    TITLE "0:"
    INDEX 01 01:01:29
  TRACK 44 AUDIO
    TITLE "2:cjc116_1698"
    INDEX 01 01:02:01
  TRACK 45 AUDIO
    TITLE "0:"
    INDEX 01 01:03:08
  TRACK 46 AUDIO
    TITLE "2:cjc116_1699"
    INDEX 01 01:03:24
  TRACK 47 AUDIO
    TITLE "0:"
    INDEX 01 01:08:13
  TRACK 48 AUDIO
    TITLE "2:cjc116_1700"
    INDEX 01 01:08:54
  TRACK 49 AUDIO
    TITLE "0:"
    INDEX 01 01:09:48
  TRACK 50 AUDIO
    TITLE "2:cjc116_1701"
    INDEX 01 01:09:59
  TRACK 51 AUDIO
    TITLE "0:"
    INDEX 01 01:13:20
  TRACK 52 AUDIO
    TITLE "2:cjc116_1702"
    INDEX 01 01:13:65
  TRACK 53 AUDIO
    TITLE "0:"
    INDEX 01 01:14:68
  TRACK 54 AUDIO
    TITLE "2:cjc116_1703"
    INDEX 01 01:15:09
  TRACK 55 AUDIO
    TITLE "0:"
    INDEX 01 01:19:50
  TRACK 56 AUDIO
    TITLE "2:cjc116_1704"
    INDEX 01 01:20:18
  TRACK 57 AUDIO
    TITLE "0:"
    INDEX 01 01:21:21
  TRACK 58 AUDIO
    TITLE "2:cjc116_1705"
    INDEX 01 01:21:39
  TRACK 59 AUDIO
    TITLE "0:"
    INDEX 01 01:26:05
  TRACK 60 AUDIO
    TITLE "2:cjc116_1706"
    INDEX 01 01:26:52
  TRACK 61 AUDIO
    TITLE "0:"
    INDEX 01 01:27:63
  TRACK 62 AUDIO
    TITLE "2:cjc116_1707"
    INDEX 01 01:28:02
  TRACK 63 AUDIO
    TITLE "0:"
    INDEX 01 01:31:57
  TRACK 64 AUDIO
    TITLE "2:cjc116_1708"
    INDEX 01 01:32:27
  TRACK 65 AUDIO
    TITLE "0:"
    INDEX 01 01:33:42
  TRACK 66 AUDIO
    TITLE "2:cjc116_1709"
    INDEX 01 01:33:52
  TRACK 67 AUDIO
    TITLE "0:"
    INDEX 01 01:38:14
  TRACK 68 AUDIO
    TITLE "2:cjc116_1710"
    INDEX 01 01:38:53
  TRACK 69 AUDIO
    TITLE "0:"
    INDEX 01 01:39:66
  TRACK 70 AUDIO
    TITLE "2:cjc116_1711"
    INDEX 01 01:40:09
  TRACK 71 AUDIO
    TITLE "0:"
    INDEX 01 01:44:01
  TRACK 72 AUDIO
    TITLE "2:cjc116_1712"
    INDEX 01 01:44:40
  TRACK 73 AUDIO
    TITLE "0:"
    INDEX 01 01:45:71
  TRACK 74 AUDIO
    TITLE "2:cjc116_1713"
    INDEX 01 01:46:12
  TRACK 75 AUDIO
    TITLE "0:"
    INDEX 01 01:50:35
  TRACK 76 AUDIO
    TITLE "2:cjc116_1714"
    INDEX 01 01:51:03
  TRACK 77 AUDIO
    TITLE "0:"
    INDEX 01 01:52:02
  TRACK 78 AUDIO
    TITLE "2:cjc116_1715"
    INDEX 01 01:52:18
  TRACK 79 AUDIO
    TITLE "0:"
    INDEX 01 01:57:19
  TRACK 80 AUDIO
    TITLE "2:cjc116_1716"
    INDEX 01 01:57:58
  TRACK 81 AUDIO
    TITLE "0:"
    INDEX 01 01:58:62
  TRACK 82 AUDIO
    TITLE "2:cjc116_1717"
    INDEX 01 01:59:10
  TRACK 83 AUDIO
    TITLE "0:"
    INDEX 01 02:03:34
  TRACK 84 AUDIO
    TITLE "2:cjc116_1718"
    INDEX 01 02:04:00
  TRACK 85 AUDIO
    TITLE "0:"
    INDEX 01 02:04:74
  TRACK 86 AUDIO
    TITLE "2:cjc116_1719"
    INDEX 01 02:05:25
  TRACK 87 AUDIO
    TITLE "0:"
    INDEX 01 02:09:38
  TRACK 88 AUDIO
    TITLE "2:cjc116_1720"
    INDEX 01 02:10:08
  TRACK 89 AUDIO
    TITLE "0:"
    INDEX 01 02:11:15
  TRACK 90 AUDIO
    TITLE "2:cjc116_1721"
    INDEX 01 02:11:37
  TRACK 91 AUDIO
    TITLE "0:"
    INDEX 01 02:15:37
  TRACK 92 AUDIO
    TITLE "2:cjc116_1722"
    INDEX 01 02:16:11
  TRACK 93 AUDIO
    TITLE "0:"
    INDEX 01 02:17:16
  TRACK 94 AUDIO
    TITLE "2:cjc116_1723"
    INDEX 01 02:17:38
  TRACK 95 AUDIO
    TITLE "0:"
    INDEX 01 02:23:01
  TRACK 96 AUDIO
    TITLE "2:cjc116_1724"
    INDEX 01 02:23:30
  TRACK 97 AUDIO
    TITLE "0:"
    INDEX 01 02:24:40
  TRACK 98 AUDIO
    TITLE "2:cjc116_1725"
    INDEX 01 02:24:55
  TRACK 99 AUDIO
    TITLE "0:"
    INDEX 01 02:29:43
  TRACK 100 AUDIO
    TITLE "2:cjc116_1726"
    INDEX 01 02:30:03
  TRACK 101 AUDIO
    TITLE "0:"
    INDEX 01 02:31:24
  TRACK 102 AUDIO
    TITLE "2:cjc116_1727"
    INDEX 01 02:31:38
  TRACK 103 AUDIO
    TITLE "0:"
    INDEX 01 02:35:49
  TRACK 104 AUDIO
    TITLE "2:cjc116_1728"
    INDEX 01 02:36:08
  TRACK 105 AUDIO
    TITLE "0:"
    INDEX 01 02:37:17
  TRACK 106 AUDIO
    TITLE "2:cjc116_1729"
    INDEX 01 02:37:27
  TRACK 107 AUDIO
    TITLE "0:"
    INDEX 01 02:40:62
  TRACK 108 AUDIO
    TITLE "2:cjc116_1730"
    INDEX 01 02:41:32
  TRACK 109 AUDIO
    TITLE "0:"
    INDEX 01 02:42:36
  TRACK 110 AUDIO
    TITLE "2:cjc116_1731"
    INDEX 01 02:42:53
  TRACK 111 AUDIO
    TITLE "0:"
    INDEX 01 02:46:24
  TRACK 112 AUDIO
    TITLE "2:cjc116_1732"
    INDEX 01 02:46:61
  TRACK 113 AUDIO
    TITLE "0:"
    INDEX 01 02:48:05
  TRACK 114 AUDIO
    TITLE "2:cjc116_1733"
    INDEX 01 02:48:17
  TRACK 115 AUDIO
    TITLE "0:"
    INDEX 01 02:53:45
  TRACK 116 AUDIO
    TITLE "2:cjc116_1734"
    INDEX 01 02:54:07
  TRACK 117 AUDIO
    TITLE "0:"
    INDEX 01 02:55:25
  TRACK 118 AUDIO
    TITLE "2:cjc116_1735"
    INDEX 01 02:55:38
  TRACK 119 AUDIO
    TITLE "0:"
    INDEX 01 02:59:36
  TRACK 120 AUDIO
    TITLE "2:cjc116_1736"
    INDEX 01 03:00:00
  TRACK 121 AUDIO
    TITLE "0:"
    INDEX 01 03:00:71
  TRACK 122 AUDIO
    TITLE "2:cjc116_1737"
    INDEX 01 03:01:09
  TRACK 123 AUDIO
    TITLE "0:"
    INDEX 01 03:05:50
  TRACK 124 AUDIO
    TITLE "2:cjc116_1738"
    INDEX 01 03:06:20
  TRACK 125 AUDIO
    TITLE "0:"
    INDEX 01 03:07:04
  TRACK 126 AUDIO
    TITLE "2:cjc116_1739"
    INDEX 01 03:07:20
  TRACK 127 AUDIO
    TITLE "0:"
    INDEX 01 03:11:47
  TRACK 128 AUDIO
    TITLE "2:cjc116_1740"
    INDEX 01 03:12:29
  TRACK 129 AUDIO
    TITLE "0:"
    INDEX 01 03:13:44
  TRACK 130 AUDIO
    TITLE "2:cjc116_1741"
    INDEX 01 03:13:68
  TRACK 131 AUDIO
    TITLE "0:"
    INDEX 01 03:18:30
  TRACK 132 AUDIO
    TITLE "2:cjc116_1742"
    INDEX 01 03:18:73
  TRACK 133 AUDIO
    TITLE "0:"
    INDEX 01 03:20:32
  TRACK 134 AUDIO
    TITLE "2:cjc116_1743"
    INDEX 01 03:20:46
  TRACK 135 AUDIO
    TITLE "0:"
    INDEX 01 03:26:21
  TRACK 136 AUDIO
    TITLE "2:cjc116_1744"
    INDEX 01 03:27:03
  TRACK 137 AUDIO
    TITLE "0:"
    INDEX 01 03:28:14
  TRACK 138 AUDIO
    TITLE "2:cjc116_1745"
    INDEX 01 03:28:28
  TRACK 139 AUDIO
    TITLE "0:"
    INDEX 01 03:33:04
  TRACK 140 AUDIO
    TITLE "2:cjc116_1746"
    INDEX 01 03:33:47
  TRACK 141 AUDIO
    TITLE "0:"
    INDEX 01 03:34:27
  TRACK 142 AUDIO
    TITLE "2:cjc116_1747"
    INDEX 01 03:34:48
  TRACK 143 AUDIO
    TITLE "0:"
    INDEX 01 03:38:67
  TRACK 144 AUDIO
    TITLE "2:cjc116_1748"
    INDEX 01 03:39:34
  TRACK 145 AUDIO
    TITLE "0:"
    INDEX 01 03:40:49
  TRACK 146 AUDIO
    TITLE "2:cjc116_1749"
    INDEX 01 03:40:64
  TRACK 147 AUDIO
    TITLE "0:"
    INDEX 01 03:45:24
  TRACK 148 AUDIO
    TITLE "2:cjc116_1750"
    INDEX 01 03:45:69
  TRACK 149 AUDIO
    TITLE "0:"
    INDEX 01 03:47:10
  TRACK 150 AUDIO
    TITLE "2:cjc116_1751"
    INDEX 01 03:47:23
  TRACK 151 AUDIO
    TITLE "0:"
    INDEX 01 03:51:03
